<svg width="512" height="512" viewBox="0 0 512 512" fill="none" xmlns="http://www.w3.org/2000/svg">
  <rect width="512" height="512" rx="64" fill="#3B82F6"/>
  <path d="M256 128C179.2 128 128 179.2 128 256C128 332.8 179.2 384 256 384C332.8 384 384 332.8 384 256C384 179.2 332.8 128 256 128ZM256 352C197.6 352 160 314.4 160 256C160 197.6 197.6 160 256 160C314.4 160 352 197.6 352 256C352 314.4 314.4 352 256 352Z" fill="white"/>
  <path d="M256 176C220.8 176 192 204.8 192 240C192 275.2 220.8 304 256 304C291.2 304 320 275.2 320 240C320 204.8 291.2 176 256 176ZM256 288C232.8 288 224 279.2 224 256C224 232.8 232.8 224 256 224C279.2 224 288 232.8 288 256C288 279.2 279.2 288 256 288Z" fill="white"/>
</svg> 