<svg width="192" height="192" viewBox="0 0 192 192" fill="none" xmlns="http://www.w3.org/2000/svg">
  <rect width="192" height="192" rx="24" fill="#3B82F6"/>
  <path d="M96 48C68.4 48 46 70.4 46 98C46 125.6 68.4 148 96 148C123.6 148 146 125.6 146 98C146 70.4 123.6 48 96 48ZM96 136C75.2 136 58 118.8 58 98C58 77.2 75.2 60 96 60C116.8 60 134 77.2 134 98C134 118.8 116.8 136 96 136Z" fill="white"/>
  <path d="M96 68C82.8 68 72 78.8 72 92C72 105.2 82.8 116 96 116C109.2 116 120 105.2 120 92C120 78.8 109.2 68 96 68ZM96 108C87.2 108 80 100.8 80 92C80 83.2 87.2 76 96 76C104.8 76 112 83.2 112 92C112 100.8 104.8 108 96 108Z" fill="white"/>
</svg> 